<svg width="12" height="14" viewBox="0 0 12 14" fill="none" xmlns="http://www.w3.org/2000/svg">
<path d="M5.99999 1.26129C7.60207 1.26129 7.79182 1.2684 8.42449 1.30208C9.00949 1.33323 9.32718 1.44726 9.53863 1.5431C9.81867 1.67008 10.0186 1.8218 10.2285 2.06674C10.4385 2.31167 10.5685 2.54489 10.6773 2.8716C10.7595 3.11829 10.8572 3.48893 10.8839 4.1714C10.9128 4.90955 10.9189 5.13092 10.9189 7.00001C10.9189 8.8691 10.9128 9.09048 10.8839 9.8286C10.8572 10.5111 10.7595 10.8817 10.6773 11.1284C10.5685 11.4551 10.4385 11.6884 10.2285 11.9333C10.0186 12.1782 9.81867 12.3299 9.53863 12.4569C9.32718 12.5528 9.00949 12.6668 8.42449 12.698C7.79191 12.7316 7.60216 12.7387 5.99999 12.7387C4.39782 12.7387 4.20807 12.7316 3.57549 12.698C2.99049 12.6668 2.6728 12.5528 2.46137 12.4569C2.18131 12.3299 1.98141 12.1782 1.77146 11.9333C1.56152 11.6884 1.43148 11.4551 1.32266 11.1284C1.24049 10.8817 1.14274 10.5111 1.11604 9.82863C1.08718 9.09048 1.08108 8.8691 1.08108 7.00001C1.08108 5.13092 1.08718 4.90955 1.11604 4.17143C1.14274 3.48893 1.24049 3.11829 1.32266 2.8716C1.43148 2.54489 1.56152 2.31167 1.77146 2.06674C1.98141 1.8218 2.18131 1.67008 2.46137 1.5431C2.6728 1.44726 2.99049 1.33323 3.57546 1.30208C4.20816 1.2684 4.39791 1.26129 5.99999 1.26129ZM5.99999 0C4.37047 0 4.16617 0.0080581 3.52621 0.0421244C2.88755 0.0761351 2.45142 0.19445 2.06975 0.367505C1.6752 0.546395 1.34059 0.785748 1.00703 1.1749C0.673474 1.56405 0.468314 1.95442 0.31498 2.41473C0.166648 2.86001 0.0652349 3.36884 0.0360828 4.11394C0.00688312 4.86053 0 5.09891 0 7.00001C0 8.90111 0.00688312 9.13949 0.0360828 9.88609C0.0652349 10.6312 0.166648 11.14 0.31498 11.5853C0.468314 12.0456 0.673474 12.436 1.00703 12.8251C1.34059 13.2143 1.6752 13.4536 2.06975 13.6325C2.45142 13.8056 2.88755 13.9239 3.52621 13.9579C4.16617 13.992 4.37047 14 5.99999 14C7.6295 14 7.83383 13.992 8.47377 13.9579C9.11242 13.9239 9.54856 13.8056 9.93023 13.6325C10.3248 13.4536 10.6594 13.2143 10.9929 12.8251C11.3265 12.436 11.5317 12.0456 11.685 11.5853C11.8333 11.14 11.9347 10.6312 11.9639 9.88609C11.9931 9.13949 12 8.90111 12 7.00001C12 5.09891 11.9931 4.86053 11.9639 4.11394C11.9347 3.36884 11.8333 2.86001 11.685 2.41473C11.5317 1.95442 11.3265 1.56405 10.9929 1.1749C10.6594 0.785748 10.3248 0.546395 9.93023 0.367505C9.54856 0.19445 9.11242 0.0761351 8.47377 0.0421244C7.83383 0.0080581 7.6295 0 5.99999 0ZM5.99999 3.40541C4.29836 3.40541 2.9189 5.01478 2.9189 7.00001C2.9189 8.98525 4.29836 10.5946 5.99999 10.5946C7.70162 10.5946 9.08108 8.98525 9.08108 7.00001C9.08108 5.01478 7.70162 3.40541 5.99999 3.40541ZM5.99999 9.33336C4.89543 9.33336 3.99998 8.28867 3.99998 7.00001C3.99998 5.71136 4.89543 4.66667 5.99999 4.66667C7.10455 4.66667 8 5.71136 8 7.00001C8 8.28867 7.10455 9.33336 5.99999 9.33336ZM9.9228 3.26339C9.9228 3.72731 9.60046 4.10341 9.20281 4.10341C8.80516 4.10341 8.48279 3.72731 8.48279 3.26339C8.48279 2.79947 8.80516 2.4234 9.20281 2.4234C9.60046 2.4234 9.9228 2.79947 9.9228 3.26339Z" fill="#0A0A08"/>
</svg>
