<svg width="12" height="12" viewBox="0 0 12 12" fill="none" xmlns="http://www.w3.org/2000/svg">
<path d="M2.06933 2.10387C2.45817 2.40687 2.60412 2.38387 3.3349 2.33687L10.2231 1.94037C10.369 1.94037 10.2476 1.80037 10.1991 1.77737L9.05447 0.983874C8.83555 0.820874 8.54313 0.633875 7.98332 0.680375L1.31405 1.14737C1.07115 1.17037 1.02215 1.28737 1.1191 1.38037L2.06933 2.10387ZM2.48267 3.64387V10.5959C2.48267 10.9694 2.67709 11.1094 3.11546 11.0859L10.6854 10.6659C11.1238 10.6429 11.1728 10.3859 11.1728 10.0824V3.17687C11.1728 2.87387 11.0513 2.71037 10.7829 2.73337L2.87204 3.17687C2.58014 3.20037 2.48267 3.34037 2.48267 3.64337V3.64387ZM9.9557 4.01637C10.0042 4.22637 9.9557 4.43637 9.73677 4.46037L9.37191 4.53037V9.66236C9.05499 9.82586 8.7631 9.91936 8.51968 9.91936C8.12979 9.91936 8.03232 9.80235 7.74042 9.45286L5.3547 5.85986V9.33586L6.10946 9.49986C6.10946 9.49986 6.10946 9.91986 5.50065 9.91986L3.82121 10.0129C3.77274 9.91985 3.82121 9.68636 3.99166 9.63986L4.4295 9.52336V4.92687L3.82226 4.87987C3.77326 4.66987 3.89523 4.36687 4.2356 4.34337L6.03701 4.22687L8.5202 7.86636V4.64637L7.88689 4.57687C7.83842 4.31987 8.03284 4.13337 8.27626 4.11037L9.9557 4.01637ZM0.754235 0.517375L7.69195 0.0273759C8.54365 -0.0426239 8.7631 0.00387596 9.29841 0.377375L11.5132 1.87037C11.878 2.12687 12 2.19687 12 2.47687V10.6659C12 11.1789 11.8056 11.4829 11.1243 11.5289L3.06698 11.9959C2.55616 12.0194 2.31222 11.9494 2.04431 11.6224L0.413344 9.59235C0.121449 9.21886 0 8.93936 0 8.61236V1.33337C0 0.913874 0.194944 0.563375 0.754235 0.517375Z" fill="black"/>
</svg>
