<svg width="12" height="12" viewBox="0 0 12 12" fill="none" xmlns="http://www.w3.org/2000/svg">
<path d="M0.211956 5.75396L2.977 6.93926L4.04724 10.8924C4.11572 11.1456 4.38528 11.2392 4.5642 11.0712L6.10548 9.62804C6.26704 9.47685 6.49716 9.46932 6.666 9.61008L9.44593 11.9282C9.63733 12.088 9.90849 11.9675 9.95649 11.7019L11.9929 0.451124C12.0453 0.160955 11.7971 -0.0811119 11.5565 0.0257487L0.208716 5.05367C-0.0713247 5.17771 -0.0688847 5.63308 0.211956 5.75396ZM3.87476 6.30829L9.27869 2.48561C9.37581 2.41711 9.47573 2.56794 9.39233 2.65679L4.93252 7.4182C4.77576 7.58579 4.67464 7.81008 4.646 8.05353L4.49408 9.34661C4.47396 9.51925 4.2628 9.53639 4.22132 9.3693L3.63704 7.01134C3.57012 6.74239 3.66764 6.45512 3.87476 6.30829Z" fill="black"/>
</svg>
