<svg width="14" height="12" viewBox="0 0 14 12" fill="none" xmlns="http://www.w3.org/2000/svg">
<path d="M13.7116 1.87765C13.5502 1.14353 13.0774 0.564706 12.4777 0.367059C11.3822 0 6.99997 0 6.99997 0C6.99997 0 2.61778 0 1.52223 0.352941C0.934098 0.550588 0.449751 1.14353 0.288302 1.87765C0 3.21882 0 6 0 6C0 6 0 8.79529 0.288302 10.1224C0.449751 10.8565 0.922566 11.4353 1.52223 11.6329C2.62931 12 6.99997 12 6.99997 12C6.99997 12 11.3822 12 12.4777 11.6471C13.0774 11.4494 13.5502 10.8706 13.7116 10.1365C13.9999 8.79529 13.9999 6.01412 13.9999 6.01412C13.9999 6.01412 14.0115 3.21882 13.7116 1.87765Z" fill="#282828"/>
<path d="M9.24873 5.99983L5.60459 3.43042V8.56924L9.24873 5.99983Z" fill="white"/>
</svg>
